<svg xmlns="http://www.w3.org/2000/svg" width="260" height="260" viewBox="0 0 68.792 68.792">
	<path fill="#ff0" d="M0 0h34.396v34.396H0z"/><path d="M8.13 21.462c-.907.98-1.018 3.022-.321 4.163l-3.203 3.202c-.448-.192-.96-.32-1.601.32-.64.641-.524 1.717.005 2.245.529.527 1.596.638 2.237-.002.64-.641.501-1.129.32-1.602l3.203-3.202c.912.896 2.74 1.103 4.163-.32L31.828 7.37l-.96-.96-18.896 18.895c-1.799 1.809-4.617-1.122-2.882-2.883L27.985 3.527l-.96-.96S8.921 20.65 8.128 21.461z" fill="#00f" fill-rule="evenodd"/><path fill="#f0f" d="M34.396 0h34.396v34.396H34.396z"/><path d="M42.525 21.462c-.906.98-1.017 3.022-.32 4.163l-3.203 3.202c-.448-.192-.96-.32-1.601.32-.64.641-.524 1.717.005 2.245.529.527 1.596.638 2.237-.002.64-.641.501-1.129.32-1.602l3.202-3.202c.913.896 2.74 1.103 4.164-.32L66.224 7.37l-.96-.96-18.896 18.895c-1.799 1.809-4.617-1.122-2.882-2.883L62.38 3.527l-.96-.96S43.317 20.65 42.524 21.461z" fill-rule="evenodd"/><path fill="red" d="M0 34.396h34.396v34.396H0z"/><path d="M8.13 55.857c-.907.98-1.018 3.023-.321 4.164l-3.203 3.202c-.448-.192-.96-.32-1.601.32-.64.641-.524 1.717.005 2.244.529.528 1.596.639 2.237-.002.64-.64.501-1.128.32-1.6l3.203-3.203c.912.896 2.74 1.102 4.163-.32 1.89-1.892 18.895-18.896 18.895-18.896l-.96-.96L11.971 59.7c-1.799 1.81-4.617-1.121-2.882-2.882l18.895-18.895-.96-.96S8.921 55.046 8.128 55.856z" fill="#0f0" fill-rule="evenodd"/><path fill="#00f" d="M34.396 34.396h34.396v34.396H34.396z"/><path d="M42.525 55.857c-.906.98-1.017 3.023-.32 4.164l-3.203 3.202c-.448-.192-.96-.32-1.601.32-.64.641-.524 1.717.005 2.244.529.528 1.596.639 2.237-.002.64-.64.501-1.128.32-1.6l3.202-3.203c.913.896 2.74 1.102 4.164-.32 1.89-1.892 18.895-18.896 18.895-18.896l-.96-.96L46.367 59.7c-1.799 1.81-4.617-1.121-2.882-2.882L62.38 37.923l-.96-.96S43.317 55.046 42.524 55.856z" fill="#f60" fill-rule="evenodd"/>
</svg>